<?xml version="1.0" encoding="utf-8"?>
<!-- Generator: Adobe Illustrator 27.0.0, SVG Export Plug-In . SVG Version: 6.00 Build 0)  -->
<svg version="1.0" id="圖層_1" xmlns="http://www.w3.org/2000/svg" xmlns:xlink="http://www.w3.org/1999/xlink" x="0px" y="0px"
	 viewBox="0 0 141.7 141.7" style="enable-background:new 0 0 141.7 141.7;" xml:space="preserve">
<style type="text/css">
	.st0{fill-rule:evenodd;clip-rule:evenodd;fill:#D9C884;}
</style>
<g>
	<path class="st0" d="M91.5,102.1c-0.7,6.1-4.4,10.9-10.2,13.4c-3.2,1.4-7.5,2.1-10.9,1.9c-5.3-0.2-10.2-1.5-14.8-3.8
		c-1.7-0.8-4.1-2.5-5.9-4.1c-0.4-0.3-0.6-0.7-0.2-1.2c0.4-0.6,2.1-3.1,2.4-3.5c0.4-0.6,1-0.6,1.5-0.2c0.1,0.1,0.6,0.5,0.7,0.6
		c4.4,3.4,10.1,6,16.4,6.2c8-0.1,13.7-3.7,14.8-9.1c1.1-6-3.7-11.2-13-14.1c-3-0.9-10.4-3.9-11.7-4.7c-6.5-3.8-9.5-8.7-9.1-14.8
		C52.1,60.2,60,53.9,70,53.8c4.7,0,9.2,1,13.2,2.7c1.5,0.6,4.2,2.1,5.1,2.8c0.7,0.5,0.6,1,0.4,1.5c-0.4,0.7-1.6,2.5-2,3.2
		c-0.3,0.5-0.8,0.6-1.4,0.2c-5.1-3.4-10.4-4.6-15.1-4.7c-6.8,0.1-12,4.2-12.3,9.7c-0.1,5,3.7,8.6,11.8,11.4
		C86.4,86,92.7,92.3,91.5,102.1L91.5,102.1z M70.9,15.4c10.8,0,19.7,10.2,20.1,23H50.8C51.2,25.6,60,15.4,70.9,15.4z M112,133.7
		c5.7-0.2,10.4-4.8,10.8-10.5l0-0.7l4.1-81.6v0c0.1-1.3-0.9-2.5-2.3-2.5c0,0-0.1,0-0.1,0h-26C97.9,21.5,85.7,8,70.9,8
		s-27,13.5-27.6,30.3H17.2c-1.3,0-2.4,1.1-2.4,2.4c0,0,0,0.1,0,0.1h0l3.7,81.3l0.1,1c0.6,5.7,4.7,10.2,10.3,10.4h0l82.7,0L112,133.7
		L112,133.7z"/>
</g>
</svg>
